<svg xmlns="http://www.w3.org/2000/svg" height="40px" fill="#FFFFFF" viewBox="0 0 512 512" id="favourite"><path d="m327.443 147.545-14.313 74.083a8 8 0 0 0 11.725 8.519l66.035-36.505 66.035 36.505a7.997 7.997 0 0 0 8.573-.529 7.998 7.998 0 0 0 3.152-7.99l-14.313-74.084 55.125-51.521a8 8 0 0 0-4.479-13.784l-74.88-9.281-31.966-68.347a7.998 7.998 0 0 0-14.493 0l-31.966 68.348-74.88 9.281a8 8 0 0 0-4.479 13.784l55.124 51.521zm30.592-59.252a8 8 0 0 0 6.263-4.55l26.593-56.86 26.593 56.86a8 8 0 0 0 6.263 4.55l62.294 7.721-45.859 42.861a7.996 7.996 0 0 0-2.392 7.362l11.907 61.632-54.935-30.37a7.997 7.997 0 0 0-7.742 0l-54.935 30.37 11.907-61.631a7.999 7.999 0 0 0-2.392-7.362l-45.859-42.862 62.294-7.721zm152.1 299.212c-3.479-10.438-11.423-18.657-21.796-22.549l-108.558-40.731c-11.072-4.156-22.638-2.904-32.571 3.525l-36.56 23.679c-6.86 4.442-15.079 4.486-21.985.12-25.638-16.214-49.584-35.401-71.173-57.03l-.011-.01c-21.628-21.588-40.816-45.534-57.03-71.172-4.367-6.907-4.322-15.126.12-21.985l23.68-36.562c6.428-9.93 7.679-21.497 3.524-32.568l-40.731-108.56c-3.893-10.374-12.111-18.318-22.549-21.796-10.438-3.477-21.78-2.052-31.117 3.915L36.553 42.086C7.793 60.461-5.672 93.782 2.25 126.975c21.979 92.107 69.831 176.639 138.318 244.396 67.818 68.549 152.35 116.4 244.457 138.379a81.213 81.213 0 0 0 18.865 2.241c26.471 0 51.146-13.259 66.023-36.544l36.306-56.825c5.967-9.337 7.394-20.679 3.916-31.117zm-17.398 22.503-36.307 56.825c-14.653 22.934-41.222 33.671-67.692 27.355-89.199-21.286-171.082-67.646-236.857-134.13C85.458 294.343 39.098 212.46 17.812 123.261c-6.316-26.468 4.421-53.039 27.356-67.692l56.824-36.306c3.371-2.154 7.198-3.258 11.051-3.258 2.148 0 4.305.343 6.394 1.04 5.836 1.945 10.438 6.405 12.627 12.238l40.732 108.559c2.362 6.294 1.679 12.606-1.975 18.25l-23.679 36.561c-7.809 12.058-7.89 27.092-.213 39.234 16.847 26.639 36.779 51.515 59.245 73.94 22.426 22.466 47.302 42.398 73.941 59.245 12.142 7.677 27.175 7.596 39.234-.213l36.558-23.678c5.646-3.656 11.958-4.339 18.253-1.976l108.558 40.731c5.833 2.188 10.293 6.791 12.238 12.627 1.944 5.836 1.135 12.194-2.219 17.445z"></path></svg>