<svg xmlns="http://www.w3.org/2000/svg" height="40px"  fill-rule="evenodd" stroke-linejoin="round" stroke-miterlimit="2" clip-rule="evenodd" viewBox="0 0 64 64" id="incoming-mail"><g transform="translate(-2008 -8)"><g transform="matrix(1 0 0 .73913 2000 15.743)"><path fill="#fff" d="M11.849,21.507C11.849,21.507 28.114,36.993 35.396,43.925C38.158,46.555 41.842,46.555 44.604,43.925C51.886,36.993 68.151,21.507 68.151,21.507C69.054,20.648 69.271,18.958 68.636,17.737C68,16.516 66.752,16.222 65.849,17.081C65.849,17.081 49.584,32.567 42.302,39.5C40.921,40.814 39.079,40.814 37.698,39.5C30.416,32.567 14.151,17.081 14.151,17.081C13.248,16.222 12,16.516 11.364,17.737C10.729,18.958 10.946,20.648 11.849,21.507Z"></path></g><g transform="matrix(1 0 0 -.73913 2000 78.264)"><path fill="#fff" d="M48.642,33.464L65.849,17.081C66.752,16.222 68,16.516 68.636,17.737C69.271,18.958 69.054,20.648 68.151,21.507L50.944,37.889C50.041,38.749 48.793,38.455 48.157,37.234C47.522,36.012 47.739,34.323 48.642,33.464ZM14.151,17.081L31.358,33.464C32.261,34.323 32.478,36.012 31.843,37.234C31.207,38.455 29.959,38.749 29.056,37.889L11.849,21.507C10.946,20.648 10.729,18.958 11.364,17.737C12,16.516 13.248,16.222 14.151,17.081Z"></path></g><path fill="#fff" d="M2028.11,22.358C2028.04,22.895 2028,23.443 2028,24C2028,24.807 2028.08,25.596 2028.23,26.358C2024.67,26.574 2021.1,26.888 2017.52,27.302C2015.51,27.545 2014.01,29.247 2014.01,31.267C2014.01,31.268 2014.01,31.268 2014.01,31.269C2014,38.93 2014,53.067 2014,60.729C2014,60.73 2014,60.73 2014,60.73C2014,62.753 2015.51,64.458 2017.52,64.701C2032.57,66.433 2047.56,66.433 2062.48,64.699C2064.49,64.456 2065.99,62.754 2065.99,60.734C2065.99,60.734 2065.99,60.733 2065.99,60.733C2066,53.072 2066,38.935 2066,31.272C2066,31.271 2066,31.271 2066,31.271C2066,29.248 2064.49,27.543 2062.48,27.3C2058.91,26.89 2055.35,26.577 2051.77,26.361C2051.92,25.597 2052,24.808 2052,24C2052,23.444 2051.96,22.896 2051.89,22.36C2055.58,22.581 2059.26,22.904 2062.95,23.327C2062.95,23.328 2062.95,23.328 2062.95,23.329C2066.97,23.812 2070,27.223 2070,31.271L2070,31.272C2070,38.936 2070,53.075 2069.99,60.734C2069.99,64.778 2066.97,68.185 2062.96,68.671C2062.96,68.671 2062.95,68.672 2062.95,68.672C2047.71,70.442 2032.42,70.443 2017.06,68.674C2017.05,68.673 2017.05,68.673 2017.05,68.672C2013.03,68.189 2010,64.779 2010,60.729C2010,53.066 2010,38.928 2010.01,31.267C2010.01,27.222 2013.03,23.815 2017.04,23.331C2017.05,23.33 2017.05,23.33 2017.05,23.33C2020.75,22.902 2024.43,22.578 2028.11,22.358Z"></path><g transform="matrix(1.04348 0 0 -1.04348 1913.22 66.26)"><path fill="#fff" d="M121.5,27.083C128.905,27.083 134.917,33.095 134.917,40.5C134.917,47.905 128.905,53.917 121.5,53.917C114.095,53.917 108.083,47.905 108.083,40.5C108.083,33.095 114.095,27.083 121.5,27.083ZM121.5,30.917C116.211,30.917 111.917,35.211 111.917,40.5C111.917,45.789 116.211,50.083 121.5,50.083C126.789,50.083 131.083,45.789 131.083,40.5C131.083,35.211 126.789,30.917 121.5,30.917Z"></path></g><g transform="matrix(1 0 0 -1 1760 48)"><path fill="#fff" d="M278,22.828L276.914,23.914C276.134,24.695 274.866,24.695 274.086,23.914C273.305,23.134 273.305,21.866 274.086,21.086L278.586,16.586C279.367,15.805 280.633,15.805 281.414,16.586L285.914,21.086C286.695,21.866 286.695,23.134 285.914,23.914C285.134,24.695 283.866,24.695 283.086,23.914L282,22.828L282,30C282,31.104 281.104,32 280,32C278.896,32 278,31.104 278,30L278,22.828Z"></path></g></g></svg>